<svg width="32" height="32" viewBox="0 0 32 32" fill="none" xmlns="http://www.w3.org/2000/svg">
<path fill-rule="evenodd" clip-rule="evenodd" d="M15.9997 4.33301C16.552 4.33301 16.9997 4.78072 16.9997 5.33301V14.9997H26.6663C27.2186 14.9997 27.6663 15.4474 27.6663 15.9997C27.6663 16.552 27.2186 16.9997 26.6663 16.9997H16.9997V26.6663C16.9997 27.2186 16.552 27.6663 15.9997 27.6663C15.4474 27.6663 14.9997 27.2186 14.9997 26.6663V16.9997H5.33301C4.78072 16.9997 4.33301 16.552 4.33301 15.9997C4.33301 15.4474 4.78072 14.9997 5.33301 14.9997H14.9997V5.33301C14.9997 4.78072 15.4474 4.33301 15.9997 4.33301Z" fill="#307fe2"/>
</svg>
